<?xml version="1.0" standalone="no"?>
<!DOCTYPE svg PUBLIC "-//W3C//DTD SVG 20010904//EN"
 "http://www.w3.org/TR/2001/REC-SVG-20010904/DTD/svg10.dtd">
<svg version="1.0" xmlns="http://www.w3.org/2000/svg"
 width="136.000000pt" height="136.000000pt" viewBox="0 0 136.000000 136.000000"
 preserveAspectRatio="xMidYMid meet">
<metadata>
Created by potrace 1.14, written by Peter Selinger 2001-2017
</metadata>
<g transform="translate(0.000000,136.000000) scale(0.100000,-0.100000)"
fill="#000000" stroke="none">
<path d="M0 680 l0 -680 680 0 680 0 0 680 0 680 -680 0 -680 0 0 -680z m631
502 c24 -47 77 -133 89 -142 16 -13 54 -77 109 -183 34 -65 86 -156 116 -202
58 -88 64 -105 41 -125 -8 -6 -13 -17 -10 -24 7 -18 -44 -30 -62 -15 -8 6 -14
17 -14 25 0 17 -31 34 -62 34 -13 0 -34 12 -48 29 -23 27 -32 30 -100 34 -41
2 -83 7 -92 11 -23 10 -24 -12 -3 -74 8 -25 18 -58 22 -75 l7 -30 6 40 5 40 8
-34 c4 -21 3 -39 -3 -45 -5 -5 -10 -21 -10 -36 0 -44 57 -255 85 -319 41 -90
24 -85 -20 6 -20 43 -55 114 -76 158 -93 192 -176 438 -158 467 4 7 3 18 -3
25 -20 24 2 27 40 6 20 -12 63 -29 94 -39 55 -17 58 -17 78 1 19 17 21 17 55
-10 41 -30 55 -27 36 9 -11 20 -10 28 4 50 17 25 17 27 -8 59 -13 18 -39 76
-57 130 -17 53 -36 99 -41 103 -5 3 -9 16 -9 29 0 13 -19 59 -42 102 -28 54
-35 72 -21 60 12 -10 31 -39 44 -65z m-171 -613 c0 -11 -4 -17 -10 -14 -5 3
-10 13 -10 21 0 8 5 14 10 14 6 0 10 -9 10 -21z"/>
</g>
</svg>
